<?xml version="1.0" encoding="utf-8"?>
<!DOCTYPE svg PUBLIC "-//W3C//DTD SVG 1.0//EN" "http://www.w3.org/TR/2001/REC-SVG-20010904/DTD/svg10.dtd">
<svg version="1.0" xmlns="http://www.w3.org/2000/svg" width="145px" height="85px" viewBox="0 0 145 85" preserveAspectRatio="xMidYMid meet">
 <g fill="#123b72">
  <path d="M140.40 83.65 c-0.50 -0.10 -0.90 -0.70 -0.90 -1.25 0 -0.80 0.25 -0.95 1.15 -0.70 0.60 0.15 1.50 0.30 2 0.30 0.45 0 0.85 0.25 0.85 0.50 0 0.30 -0.35 0.50 -0.75 0.50 -0.40 0 -0.75 0.25 -0.75 0.50 0 0.50 -0.15 0.55 -1.60 0.15z"/>
  <path d="M2.50 83 c0 -0.40 3 -1.50 4.15 -1.50 0.20 0 0.35 0.45 0.35 1 0 0.85 -0.35 1 -2.25 1 -1.25 0 -2.25 -0.20 -2.25 -0.50z"/>
  <path d="M133.60 81.65 c0.10 -0.70 0.45 -1.45 0.85 -1.55 0.40 -0.15 0.55 0 0.35 0.35 -0.25 0.35 0.15 0.55 1.15 0.55 1.20 0 1.55 0.20 1.55 1 0 0.85 -0.35 1 -2.05 1 -1.90 0 -2 -0.10 -1.85 -1.35z"/>
  <path d="M20.90 82.15 c-2.95 -0.15 -3.40 -0.30 -3.40 -1.15 0 -0.50 0.20 -1.10 0.50 -1.25 0.70 -0.40 -2.55 -3.15 -4.60 -3.85 -2.80 -0.95 -3.30 -2.50 -0.65 -2.05 l1.75 0.30 0 -2.95 c0 -1.60 0.35 -3.90 0.80 -5.05 0.75 -1.95 1 -2.15 2.50 -2.15 1.10 0 1.70 -0.25 1.70 -0.70 0 -0.95 1.10 -1.30 4.35 -1.30 l2.80 0 -0.35 3 c-0.35 2.80 -0.30 3 0.70 3 0.75 0 1 -0.30 1 -1.25 0 -0.85 0.30 -1.25 0.85 -1.25 0.70 0 4 -0.95 4.60 -1.35 0.45 -0.30 -1.30 -3.10 -2.05 -3.30 -0.65 -0.20 -0.90 -0.75 -0.90 -2.05 0 -1.70 0.10 -1.80 1.70 -1.80 0.90 0 1.95 -0.30 2.25 -0.65 0.30 -0.40 2.15 -0.95 4.10 -1.30 1.90 -0.35 3.40 -0.75 3.30 -0.90 -0.15 -0.10 -1.60 0.05 -3.30 0.40 -4.80 0.95 -7.25 -0.35 -4.30 -2.25 0.70 -0.45 1.15 -1.10 0.95 -1.40 -0.20 -0.30 -0.15 -0.40 0.15 -0.25 0.65 0.40 2.30 -1.35 1.80 -1.90 -0.25 -0.20 -0.15 -0.25 0.15 -0.10 0.30 0.20 1.45 -0.35 2.50 -1.15 2.55 -1.95 3.20 -1.90 3.20 0.20 0 0.95 -0.30 1.85 -0.60 2 -0.35 0.15 0.50 0.20 1.85 0.10 1.40 -0.15 4.60 -0.40 7.15 -0.60 4.45 -0.30 4.60 -0.30 4.60 0.75 0 0.75 0.30 1.05 1.15 1.05 1.45 0 2.85 -0.95 2 -1.35 -0.35 -0.10 -0.65 -0.95 -0.65 -1.90 0 -1.40 -0.20 -1.65 -1.45 -1.90 -1.15 -0.25 -1.50 -0.65 -1.75 -2.15 -0.20 -1 -0.20 -1.95 -0.05 -2.10 0.20 -0.20 2.10 -0.45 4.30 -0.55 2.15 -0.05 3.85 -0.35 3.70 -0.55 -0.15 -0.25 0.45 -0.35 1.35 -0.25 0.90 0.10 4.75 0.35 8.55 0.50 7.65 0.25 12.70 1.25 15.40 2.90 6.45 3.95 7.40 4.90 5.85 5.50 -0.35 0.15 0.55 0.30 2 0.30 2 0.05 2.60 -0.10 2.60 -0.70 0 -1 3.25 -1 9.45 0 5.05 0.85 8.30 2 9.65 3.55 0.70 0.80 1.45 0.95 5 0.85 4.80 -0.10 7.70 0.50 9.30 2 1.40 1.30 1.40 1.85 -0.10 1.85 -0.65 0 -1.35 0.35 -1.50 0.80 -0.45 1.20 -0.35 2.70 0.20 2.70 0.30 0 0.50 1 0.50 2.25 0 1.90 -0.15 2.25 -1 2.25 -0.55 0 -1 0.35 -1 0.75 0 0.50 -0.55 0.75 -1.75 0.75 -1.65 0 -1.75 -0.10 -1.75 -1.75 0 -1.40 0.20 -1.75 1 -1.75 0.55 0 1 -0.35 1 -0.75 0 -0.55 -0.60 -0.75 -2.25 -0.75 -1.90 0 -2.25 0.15 -2.25 1 0 0.60 0.35 1 0.80 1 0.70 0 0.80 0.40 0.55 2.50 l-0.30 2.50 2.70 -0.30 c3.35 -0.40 4.25 0.20 4.25 2.85 0 1.10 0.20 1.95 0.45 1.95 0.25 0 0.35 0.45 0.20 0.95 -0.35 1.30 -4.50 5.20 -4.90 4.55 -0.75 -1.25 -1.50 -0.45 -1.35 1.40 l0.20 1.95 -2.70 0.30 c-3.45 0.45 -42.35 0.45 -46.35 0.05 -2.80 -0.30 -3.05 -0.45 -3.05 -1.50 0 -0.70 -0.30 -1.20 -0.70 -1.20 -0.40 0 -0.85 -0.30 -0.95 -0.60 -0.15 -0.35 -0.30 0.15 -0.30 1.15 -0.05 1.70 -0.15 1.85 -1.90 2.15 -1.90 0.30 -43.05 0.25 -49.25 -0.05z m49.70 -7.25 c0.30 -0.90 -0.15 -2.90 -0.65 -2.90 -0.25 0 -0.45 0.45 -0.45 0.95 0 0.55 -0.25 1.05 -0.60 1.15 -0.75 0.25 -0.05 1.40 0.85 1.40 0.35 0 0.75 -0.25 0.85 -0.60z m5.70 -2.15 c0.40 -0.55 0.70 -2.05 0.70 -3.35 0 -1.35 0.25 -2.40 0.50 -2.40 0.30 0 0.50 -0.20 0.50 -0.50 0 -0.25 -0.35 -0.50 -0.75 -0.50 -0.40 0 -0.75 0.20 -0.75 0.45 0 0.25 -0.65 1.15 -1.45 2 -1.40 1.50 -1.65 3.65 -0.50 4.35 0.25 0.15 0.50 0.85 0.50 1.60 0.05 1.05 0.10 1.15 0.30 0.35 0.15 -0.55 0.60 -1.45 0.95 -2z m-55.50 -2.20 c0 -2.80 -0.10 -3.40 -0.70 -3.15 -0.55 0.20 -0.65 0.85 -0.40 3 0.30 2.35 0.60 3.60 0.95 3.60 0.05 0 0.10 -1.55 0.15 -3.45z m4.65 -0.15 c-0.05 -1.45 -0.20 -2.20 -0.30 -1.65 -0.15 0.55 -0.50 1.15 -0.85 1.35 -0.40 0.30 -0.35 0.40 0.10 0.40 0.30 0 0.60 0.55 0.60 1.25 0 0.70 0.10 1.25 0.25 1.25 0.15 0 0.20 -1.20 0.20 -2.60z m94.65 -2.90 c-0.15 -1.65 -0.05 -2.50 0.35 -2.50 0.30 0 0.55 -0.35 0.55 -0.75 0 -0.40 -0.20 -0.75 -0.50 -0.75 -0.25 0 -0.50 -0.35 -0.50 -0.75 0 -0.40 -0.35 -0.75 -0.75 -0.75 -0.40 0 -0.75 -0.35 -0.75 -0.75 0 -0.40 -0.45 -0.75 -0.95 -0.75 -1.45 0 -2.55 -0.55 -2.55 -1.20 0 -0.90 -1.20 -3.30 -1.60 -3.30 -0.25 0 -0.40 0.75 -0.40 1.65 0 2 -0.75 2.85 -2.60 2.85 -1.20 0 -1.40 0.20 -1.40 1.50 0 1.40 -0.10 1.50 -2 1.50 -1.70 0 -2 -0.15 -2 -1.05 0 -0.90 -0.25 -1 -2.35 -0.85 -2.20 0.15 -2.40 0.25 -2.55 1.55 -0.15 1.20 -0.40 1.35 -1.90 1.35 -0.95 0 -1.70 -0.25 -1.70 -0.60 0 -0.30 -0.60 0 -1.35 0.70 -0.80 0.75 -2 1.65 -2.75 2.05 -2 1 -1 1.65 2.25 1.45 2.60 -0.20 2.85 -0.30 2.85 -1.35 0 -1.20 1.10 -1.75 3.60 -1.75 1.15 0 1.35 0.25 1.50 1.65 0.15 1.55 0.25 1.60 2.55 1.75 l2.35 0.15 0 -1.75 c0 -1.60 0.15 -1.80 1.25 -1.80 0.70 0 1.25 -0.20 1.25 -0.50 0 -0.25 0.90 -0.50 2 -0.50 1.95 0 2 0.05 2 1.75 0 0.95 0.20 1.75 0.45 1.75 0.25 0 0.60 0.45 0.80 0.95 0.20 0.70 0.85 1.05 2.15 1.20 1 0.10 2.10 0.20 2.40 0.25 0.35 0.05 0.45 -0.75 0.30 -2.40z m-50.90 0.75 c0.20 -0.50 -0.05 -0.75 -0.70 -0.75 -0.55 0 -1 0.35 -1 0.75 0 0.40 0.30 0.75 0.70 0.75 0.40 0 0.80 -0.35 1 -0.75z m-12.80 -2.10 c0.25 -0.50 0.30 -1.45 0.10 -2.15 -0.30 -1.05 -0.35 -0.95 -0.55 0.90 -0.25 2.35 -0.20 2.50 0.45 1.25z m36.10 -6.40 c0.90 -1.10 0.15 -2.75 -1.30 -2.75 -0.75 0 -1.20 0.30 -1.20 0.75 0 0.40 0.25 0.75 0.50 0.75 0.30 0 0.50 0.45 0.50 1 0 1.20 0.65 1.30 1.50 0.25z m-22.60 -3.15 c-0.45 -0.10 -0.95 -0.55 -1.05 -1 -0.15 -0.50 -0.25 -0.30 -0.30 0.50 -0.05 1.10 0.10 1.25 1.10 1 0.85 -0.25 0.90 -0.35 0.25 -0.50z m17.50 -0.55 c0.75 -0.05 1.10 -0.35 1.10 -1 0 -2.05 -0.55 -2.55 -2.80 -2.55 -2 0 -2.20 -0.10 -2.20 -1.25 0 -0.70 -0.20 -1.25 -0.50 -1.25 -0.25 0 -0.50 -0.80 -0.50 -1.75 0 -1.75 0 -1.75 2.30 -1.75 1.90 0 2.15 -0.10 1.60 -0.65 -1.20 -1.25 -5.80 -1.95 -12.55 -2 -8.65 0 -13.85 0.50 -13.85 1.45 0 0.40 0.45 0.70 1 0.70 0.55 0 1 0.30 1 0.70 0 0.95 1.95 1.15 7.25 0.75 2.50 -0.20 6.35 -0.40 8.65 -0.40 4 -0.05 4.10 0 4.10 1.15 0 2.90 -0.60 4.30 -1.80 4.30 -0.95 0 -1.20 0.25 -1.20 1.20 0 0.95 -0.30 1.20 -1.85 1.50 -1.05 0.15 -2.50 0.30 -3.25 0.30 -0.80 0 -1.40 0.15 -1.40 0.40 0 0.30 10.40 0.40 14.90 0.15z"/>
 </g>
 <g fill="#ffffff">
  <path d="M7.90 83.60 c-3.45 -0.10 -5.40 -0.35 -5.40 -0.65 0 -0.30 0.35 -0.40 0.80 -0.25 0.50 0.20 0.65 0.10 0.40 -0.30 -0.25 -0.35 0 -0.45 0.70 -0.30 0.60 0.15 1.10 0.10 1.20 -0.10 0.10 -0.25 2.80 -0.75 6 -1.15 3.25 -0.45 6.10 -0.90 6.40 -1.10 0.75 -0.45 -3.15 -3.60 -4.95 -4 -1.20 -0.25 -2.45 -1.55 -1.95 -2 0.50 -0.45 3.55 0.50 3.75 1.20 0.50 1.40 1.30 2.15 1.65 1.60 0.45 -0.80 2.50 0.80 2.50 2 0 0.50 0.30 0.95 0.65 0.95 0.40 0 0.35 0.20 -0.15 0.50 -0.60 0.40 -0.45 0.50 0.65 0.50 0.75 0 1.35 0.20 1.35 0.45 0 0.65 -1.30 1.05 -3.25 1.05 -0.95 0 -1.90 0.30 -2.10 0.70 -0.50 0.95 -1.75 1.10 -8.25 0.90z"/>
  <path d="M34.40 83.65 c-0.50 -0.10 -0.90 -0.55 -0.90 -0.95 0 -0.60 2.85 -0.70 18.85 -0.70 16.65 0 18.75 -0.10 17.85 -0.75 -0.70 -0.50 -0.75 -0.70 -0.25 -0.75 0.50 0 0.20 -0.55 -0.80 -1.60 -2.05 -2.15 -2.55 -3.25 -2.95 -6.25 -0.85 -6.50 3.15 -13.70 7.65 -13.65 0.75 0 0.80 0.10 0.15 0.50 -0.55 0.35 -0.40 0.50 0.80 0.50 2.10 0 4.70 2.85 4.70 5.15 0 1.20 0.15 1.40 0.50 0.85 0.30 -0.50 0.45 0.95 0.35 4.30 -0.10 4.55 -0.25 5.20 -1.50 7.15 -0.75 1.15 -1.90 2.30 -2.50 2.55 -0.90 0.35 -0.80 0.45 0.90 0.50 2 0.05 2 0.05 0.75 0.75 -1.10 0.65 0 0.70 9.90 0.75 9.10 0 11.10 0.10 11.10 0.70 0 0.35 -0.50 0.80 -1.10 1 -1.30 0.30 -62.20 0.30 -63.50 -0.05z m41.60 -6.15 c0 -0.25 -0.30 -0.50 -0.70 -0.50 -0.40 0 -0.90 0.25 -1.05 0.50 -0.15 0.30 0.15 0.50 0.70 0.50 0.60 0 1.05 -0.20 1.05 -0.50z m3.45 -5.45 c-0.05 -1.70 -0.05 -1.75 -0.45 -0.45 -0.20 0.70 -0.50 1.55 -0.65 1.80 -0.20 0.25 0 0.45 0.40 0.45 0.55 0 0.75 -0.55 0.70 -1.80z m-6.55 -4.25 c-0.10 -0.05 -0.55 -0.40 -1 -0.75 -0.80 -0.60 -0.90 -0.55 -0.90 0.15 0 0.50 0.25 0.70 0.50 0.55 0.30 -0.15 0.50 -0.05 0.50 0.25 0 0.30 0.25 0.40 0.55 0.25 0.30 -0.20 0.45 -0.40 0.35 -0.45z m1.30 -1.55 c0.85 -0.65 0.85 -0.75 0.15 -1.05 -0.45 -0.15 -0.70 -0.50 -0.55 -0.80 0.15 -0.25 -0.15 -0.20 -0.75 0.20 -1.05 0.65 -1.35 1.45 -0.70 2.05 0.45 0.50 0.75 0.40 1.85 -0.40z"/>
  <path d="M133.30 83.60 c-0.55 -0.10 -1.25 -0.50 -1.60 -0.85 -0.35 -0.35 -2.55 -0.80 -4.90 -1 -2.40 -0.20 -4.30 -0.55 -4.30 -0.80 0 -0.25 0.45 -0.45 0.95 -0.45 0.70 0 0.90 -0.25 0.70 -1 -0.15 -0.55 -0.45 -1 -0.70 -1 -1.20 0 -0.20 -0.95 1.80 -1.70 2.20 -0.85 5.25 -3.75 5.25 -5 0 -0.35 -0.40 -1 -0.90 -1.45 -1.20 -1.10 -4.20 -0.30 -5.30 1.40 -0.90 1.40 -1.80 1.65 -1.80 0.50 0 -0.55 -0.55 -0.75 -2 -0.75 -1.35 0 -2.15 0.25 -2.30 0.75 -0.40 1.05 -1.35 0.95 -1.10 -0.10 0.20 -0.75 -0.10 -0.90 -1.65 -0.90 -1.05 0 -2.20 0.30 -2.55 0.65 -0.70 0.70 -1.60 0.80 -1.20 0.15 0.15 -0.25 -0.90 -0.60 -2.30 -0.75 -1.90 -0.25 -2.40 -0.50 -1.90 -0.85 0.60 -0.35 0.45 -0.45 -0.50 -0.45 -19.60 -0.20 -19.95 -0.25 -19.25 -2.40 0.20 -0.75 0.90 -1.15 2.50 -1.40 2.20 -0.30 3.60 -1.25 3.05 -2.10 -0.40 -0.65 1.80 -2.60 3.25 -2.90 0.65 -0.15 3.30 -0.40 5.80 -0.55 4.55 -0.30 4.65 -0.30 5.60 -1.90 1.25 -2.15 5.30 -4.85 6.70 -4.45 1.55 0.40 2.50 1.20 3.60 3.05 0.50 0.90 1.10 1.50 1.35 1.35 0.20 -0.15 0.40 0.25 0.45 0.90 0 0.65 0.15 0.90 0.25 0.55 0.20 -0.40 0.75 -0.45 1.85 -0.10 2.15 0.60 5.50 0.60 5.10 -0.05 -0.15 -0.25 0.20 -0.50 0.75 -0.50 0.80 0 1 -0.20 0.80 -0.80 -0.15 -0.45 -0.30 -0.90 -0.30 -1 0 -0.10 -0.45 -0.20 -1.05 -0.20 -0.55 0 -0.90 -0.20 -0.70 -0.50 0.30 -0.45 -5.60 -2.50 -7.25 -2.50 -1 0 -2.15 -1.15 -1.65 -1.65 0.15 -0.20 0 -0.35 -0.40 -0.35 -1 -0.05 -2.60 -1.35 -2 -1.70 0.25 -0.15 1.15 0.30 2.05 1 1.45 1.25 1.90 1.35 5.50 1.25 7.10 -0.20 10.60 1.60 10.80 5.50 0.10 2.85 -0.25 3.95 -1.35 3.95 -0.85 0 -0.90 0.15 -0.35 1.15 0.35 0.60 0.75 1.20 0.90 1.35 0.65 0.65 2 3.70 2 4.50 0 0.50 -0.40 1 -0.95 1.15 -0.55 0.10 -1.20 1.05 -1.55 2.15 -0.70 2.20 -2.90 4.80 -3.65 4.35 -0.30 -0.15 -0.40 -0.10 -0.25 0.15 0.35 0.55 -0.60 1.45 -1.45 1.45 -0.35 0 -0.70 0.25 -0.75 0.50 -0.15 0.55 5.05 1.25 7.20 0.95 0.80 -0.10 1.35 0.10 1.25 0.40 -0.05 0.30 1.10 0.60 2.90 0.70 1.65 0.10 3.05 0.40 3.15 0.70 0.10 0.25 0.75 0.35 1.40 0.20 0.70 -0.20 1.20 -0.10 1.20 0.25 0 0.30 -0.35 0.40 -0.75 0.25 -0.45 -0.20 -0.75 -0.05 -0.75 0.35 0 0.55 -0.95 0.70 -3.90 0.70 -2.10 0 -4.30 -0.05 -4.80 -0.15z m-22.80 -16.60 c0 -0.25 -0.35 -0.50 -0.75 -0.50 -0.40 0 -0.75 0.25 -0.75 0.50 0 0.30 0.35 0.50 0.75 0.50 0.40 0 0.75 -0.20 0.75 -0.50z m12.50 0 c0 -0.25 -0.35 -0.50 -0.75 -0.50 -0.40 0 -0.75 0.25 -0.75 0.50 0 0.30 0.35 0.50 0.75 0.50 0.40 0 0.75 -0.20 0.75 -0.50z m-14.65 -1.35 c-1 -0.10 -2.60 -0.10 -3.50 0 -0.85 0.10 0 0.20 1.90 0.20 1.95 0 2.65 -0.10 1.60 -0.20z m12.65 -0.15 c0 -0.25 -0.35 -0.50 -0.75 -0.50 -0.40 0 -0.75 0.25 -0.75 0.50 0 0.30 0.35 0.50 0.75 0.50 0.40 0 0.75 -0.20 0.75 -0.50z"/>
  <path d="M22.90 80.65 c0.60 -0.10 1.50 -0.10 2 0 0.45 0.15 -0.05 0.25 -1.15 0.20 -1.10 0 -1.50 -0.10 -0.85 -0.20z"/>
  <path d="M22.65 79.15 c-1.20 -0.25 -2.65 -1.65 -1.70 -1.65 1.05 0 0.55 -0.95 -0.55 -1.10 -1.20 -0.15 -1.45 -1 -2.15 -6.50 -0.35 -2.80 -0.90 -3 -2.05 -0.80 -0.80 1.50 -0.90 1.55 -1.25 0.65 -0.55 -1.45 -0.50 -2.75 0.10 -1.50 0.40 0.85 0.45 0.80 0.30 -0.35 -0.15 -0.90 0 -1.40 0.45 -1.40 0.35 0 0.80 -0.20 0.95 -0.50 0.15 -0.30 -0.05 -0.35 -0.45 -0.20 -1.20 0.45 -0.95 -0.45 0.70 -2.55 2 -2.55 4.60 -4.40 8.25 -5.90 1.75 -0.70 2.95 -1.50 2.85 -1.85 -0.10 -0.35 0.15 -0.50 0.55 -0.35 0.40 0.15 1.70 -0.40 2.90 -1.20 1.20 -0.80 2.50 -1.35 2.80 -1.20 0.35 0.10 0.60 -0.05 0.50 -0.35 -0.05 -0.35 0.25 -0.60 0.65 -0.65 0.40 0 0.75 -0.35 0.75 -0.75 0.05 -0.40 0.30 -0.70 0.60 -0.65 0.35 0.10 0.50 -0.30 0.40 -0.90 -0.20 -0.90 -0.10 -0.95 0.65 -0.40 0.45 0.35 0.70 0.50 0.50 0.25 -0.35 -0.45 2.35 -2.70 5.65 -4.70 2.65 -1.60 8.95 -3.10 14.55 -3.45 3.10 -0.20 4.75 -0.50 4.55 -0.80 -0.20 -0.30 0 -0.40 0.55 -0.20 0.50 0.20 3.40 0.35 6.45 0.40 3.10 0 5.30 0.15 5 0.30 -1.05 0.40 -0.75 1.30 0.35 1 0.55 -0.15 1 -0.10 1 0.15 0 0.20 1.85 0.50 4.15 0.65 2.25 0.15 4.65 0.40 5.35 0.60 0.95 0.25 1.10 0.20 0.50 -0.20 -0.90 -0.65 -0.05 -0.75 0.95 -0.10 0.35 0.25 0.55 0.65 0.35 0.95 -0.15 0.25 0.05 0.65 0.50 0.80 0.60 0.20 0.75 0.10 0.50 -0.45 -0.45 -1.15 1.35 -0.10 2.70 1.60 0.60 0.80 0.95 1.05 0.75 0.65 -0.30 -0.65 -0.25 -0.65 0.35 0 0.90 1 1.30 1.10 7.40 1.40 l5.25 0.30 -2.50 0.60 -2.50 0.60 2.85 0.05 c1.55 0.05 3 -0.20 3.15 -0.45 0.15 -0.30 0.75 -0.50 1.35 -0.50 0.85 0 0.90 0.10 0.40 0.75 -0.50 0.65 -0.45 0.75 0.40 0.75 0.60 0 1.20 -0.20 1.35 -0.50 0.15 -0.30 0.65 -0.50 1.05 -0.50 0.40 0 0.65 0.20 0.45 0.45 -0.15 0.25 0 0.65 0.30 0.85 0.35 0.20 -0.95 0.75 -2.85 1.25 -2.65 0.65 -4 0.75 -5.70 0.40 -1.25 -0.25 -4.75 -0.65 -7.80 -0.85 -4.85 -0.30 -5.55 -0.25 -5.45 0.40 0.10 0.40 0.20 1.05 0.20 1.40 0.05 0.35 0.30 0.50 0.60 0.35 0.55 -0.35 3.40 0.60 3.50 1.20 0.05 0.15 0.15 0.75 0.25 1.30 0.10 0.55 0.35 1.70 0.50 2.60 0.25 1.30 0.05 1.85 -1 2.90 -1.60 1.60 -3 1.45 -6.15 -0.80 -1.15 -0.80 -2.30 -1.45 -2.65 -1.45 -0.30 0 -0.45 -0.20 -0.25 -0.45 0.35 -0.60 -5.65 -1.25 -8.35 -0.85 -1.20 0.15 -2.50 0.30 -2.90 0.35 -2.80 0.20 -7.70 2.45 -11.15 5.10 -1.90 1.45 -7.10 7.30 -7.45 8.35 -0.30 0.95 -1.90 -0.05 -1.90 -1.20 0 -0.55 0.45 -2 0.95 -3.15 1.25 -2.70 0.90 -4.20 -0.90 -3.95 -1.75 0.30 -5.65 0.70 -9.30 1.05 -2.90 0.25 -3 0.25 -3.05 -0.90 -0.10 -1.15 0.20 -1.25 7.85 -2.55 9.75 -1.70 11.20 -2.15 13 -3.95 0.80 -0.75 1.85 -1.50 2.30 -1.60 0.50 -0.10 2.45 -0.80 4.30 -1.50 1.85 -0.70 3.90 -1.25 4.50 -1.30 0.70 0 0.85 -0.15 0.40 -0.30 -0.50 -0.20 -0.25 -0.50 0.75 -0.95 1.40 -0.60 1.30 -0.60 -1.65 -0.65 -1.70 -0.05 -3.20 -0.25 -3.35 -0.50 -0.20 -0.25 0.15 -0.35 0.70 -0.20 0.55 0.15 1 0 1 -0.30 0 -0.65 -1.70 -0.65 -5.10 -0.10 -1.65 0.25 -2.40 0.20 -2.40 -0.15 -0.05 -0.30 -0.50 0 -1 0.65 -0.65 0.75 -0.85 1.40 -0.60 1.75 0.25 0.30 0.60 1.20 0.80 2 0.30 1.30 0.25 1.40 -0.40 0.85 -0.45 -0.40 -0.80 -0.95 -0.80 -1.35 0 -0.35 -0.25 -0.80 -0.60 -1 -0.30 -0.20 -0.40 -0.15 -0.25 0.15 0.20 0.35 -0.35 0.55 -1.55 0.55 -1 0 -5.10 0.70 -9.10 1.55 -4 0.85 -8.50 1.85 -10 2.15 -3.50 0.70 -4.15 1.20 -3.80 3 0.20 1.05 0.10 1.40 -0.50 1.40 -0.45 0 -0.60 -0.25 -0.40 -0.60 0.20 -0.30 0.15 -0.40 -0.20 -0.20 -0.35 0.20 -0.30 0.80 0.25 1.80 1.10 2.25 0.70 3.55 -1.35 4.20 -1.45 0.45 -1.80 0.85 -2 2.30 -0.15 1.10 -0.55 1.75 -1 1.80 -0.40 0.05 -1 0.10 -1.30 0.10 -0.30 0.05 -0.70 1.30 -0.90 2.75 -0.40 3 -2.40 6.40 -3.70 6.30 -0.45 -0.05 -1.35 -0.20 -1.95 -0.30z m1.35 -4.35 c-0.30 -0.30 -0.50 -1.05 -0.50 -1.70 0 -0.65 -0.20 -1 -0.50 -0.85 -0.50 0.30 -0.40 2.75 0.25 3.75 0.30 0.45 0.45 0.45 0.80 -0.05 0.20 -0.40 0.20 -0.90 -0.05 -1.15z m0.30 -9.50 c-0.20 -0.75 -0.05 -1.30 0.35 -1.45 0.30 -0.15 -0.20 -0.30 -1.15 -0.30 -1.55 0 -1.65 0.05 -0.85 0.65 0.50 0.40 0.75 1 0.55 1.50 -0.20 0.55 -0.05 0.80 0.55 0.80 0.65 0 0.80 -0.30 0.55 -1.20z m53.20 -12.30 c0 -0.25 -0.35 -0.50 -0.75 -0.50 -0.40 0 -0.75 0.25 -0.75 0.50 0 0.30 0.35 0.50 0.75 0.50 0.40 0 0.75 -0.20 0.75 -0.50z m-39 -0.30 c0 -0.15 -0.35 -0.60 -0.75 -1 -0.65 -0.70 -0.75 -0.65 -0.75 0.25 0 0.60 0.30 1.05 0.75 1.05 0.40 0 0.75 -0.15 0.75 -0.30z m12.15 -1 c2.10 -0.15 3.85 -0.50 3.85 -0.75 0 -0.25 -0.60 -0.35 -1.35 -0.25 -0.80 0.15 -3.80 0.40 -6.70 0.55 -2.95 0.20 -5.65 0.60 -6 0.85 -0.70 0.45 0.55 0.40 10.20 -0.40z m29.60 -2.70 c0.40 -0.60 -4.60 -0.65 -7.50 -0.05 -1.65 0.35 -1.20 0.45 2.60 0.50 2.60 0 4.75 -0.15 4.90 -0.45z m10.75 -0.50 c0 -0.30 -1.50 -0.50 -3.60 -0.45 -2.50 0 -3.35 0.15 -2.65 0.45 1.40 0.60 6.25 0.60 6.25 0z m-32.30 -5.55 c0.25 -1.20 0.15 -1.35 -0.85 -1.25 -0.95 0.05 -1.15 0.30 -0.95 1.05 0.15 0.55 0.50 1.15 0.80 1.35 0.65 0.40 0.60 0.45 1 -1.15z m13.45 -0.95 c0.20 0 0.35 -0.20 0.35 -0.50 0 -0.25 -0.90 -0.50 -2 -0.50 -1.15 0 -2 0.25 -2 0.55 0 0.40 -0.85 0.50 -2.75 0.30 -1.80 -0.20 -2.75 -0.10 -2.75 0.25 0 0.35 1.40 0.45 4.40 0.25 2.40 -0.20 4.50 -0.35 4.75 -0.35z"/>
  <path d="M78.50 41.50 c0 -0.25 0.60 -0.50 1.40 -0.50 1.05 0 1.20 0.10 0.60 0.50 -1 0.65 -2 0.65 -2 0z"/>
 </g>
 <g fill="#042856">
  <path d="M8 83.05 l-4.25 -0.30 2.25 -0.60 c4.55 -1.30 10.30 -1.50 34.30 -1.25 13.50 0.10 25.85 0.05 27.45 -0.15 l2.85 -0.35 -1.50 -1.55 c-2.25 -2.30 -3.15 -4.95 -3.20 -9.15 -0.05 -3.05 0.15 -3.95 1.30 -5.85 3.10 -5.40 7.40 -6.10 11 -1.85 1.90 2.25 1.60 3.30 -0.30 1.25 -0.95 -1 -2.35 -1.90 -3.30 -2.05 -1.40 -0.30 -1.85 -0.10 -3.75 1.85 -1.85 1.85 -2.30 2.70 -2.80 5.35 -0.80 4.15 0.30 8.40 2.70 10.55 1.60 1.40 1.85 1.45 8.85 1.80 5.70 0.25 32 0.10 47.25 -0.35 2.95 -0.10 10.45 0.90 13.40 1.75 1.95 0.55 1.85 0.60 -3 0.90 -6.05 0.40 -123.25 0.40 -129.25 0z"/>
  <path d="M17.20 77.75 c-0.45 -0.70 -0.75 -1.40 -0.60 -1.50 0.40 -0.40 2.40 1.30 2.40 2.05 0 1.10 -0.90 0.85 -1.80 -0.55z"/>
  <path d="M21 78.25 c-0.35 -0.40 -0.40 -0.75 -0.10 -0.75 0.25 0 0.75 0.35 1.10 0.75 0.35 0.40 0.40 0.75 0.10 0.75 -0.25 0 -0.75 -0.35 -1.10 -0.75z"/>
  <path d="M123.55 78.55 c-0.95 -0.65 -0.35 -1.40 2.10 -2.45 1.15 -0.55 2.50 -1.40 2.95 -1.90 1.20 -1.35 1.65 -3.50 0.80 -4 -0.40 -0.30 0.15 -0.55 1.75 -0.70 2.70 -0.30 3.10 -0.95 1.15 -1.90 -0.70 -0.35 -1.30 -1.10 -1.30 -1.60 0 -0.50 -0.20 -1.10 -0.50 -1.25 -0.25 -0.15 -0.50 -0.90 -0.55 -1.65 0 -0.75 -0.15 -1.10 -0.25 -0.75 -0.20 0.45 -0.65 0.45 -1.50 0.10 -0.70 -0.25 -2.20 -0.45 -3.35 -0.45 -2.95 0 -4.35 -0.50 -4.35 -1.45 0 -0.65 0.65 -0.80 4.25 -0.80 2.70 0 4.40 0.20 4.80 0.65 1.75 1.70 3.55 -0.75 2.45 -3.35 -1 -2.50 -1.80 -2.80 -2.55 -1.05 -0.55 1.15 -1 1.50 -1.95 1.45 -1.15 -0.10 -1.15 -0.10 -0.15 -0.30 0.70 -0.15 1.20 -0.70 1.40 -1.70 0.40 -1.85 1.45 -1.85 3.30 0 1.40 1.45 1.45 1.60 1.45 6.40 0 3.75 0.20 5.20 0.80 6.10 0.80 1.10 0.75 1.20 -0.45 2.25 -0.70 0.55 -1.45 1.60 -1.60 2.30 -1.10 3.70 -6.50 7.50 -8.70 6.05z"/>
  <path d="M76 77.60 c0 -0.50 -0.40 -0.60 -1.50 -0.35 -1.15 0.25 -1.50 0.15 -1.50 -0.40 0 -0.45 -0.15 -1.20 -0.35 -1.70 -0.30 -0.85 -0.30 -0.85 0.70 0 1.40 1.20 3 1.05 4.40 -0.45 0.95 -1 1.25 -1.15 1.25 -0.55 0 1 -2.95 4.40 -3 3.45z"/>
  <path d="M24 76.25 c0 -0.40 0.30 -0.75 0.70 -0.75 0.40 0 1.20 -0.60 1.75 -1.30 0.70 -0.85 1.05 -1.05 1.05 -0.60 0 1.05 -1.90 3.40 -2.80 3.40 -0.40 0 -0.70 -0.35 -0.70 -0.75z"/>
  <path d="M19 75.55 c-0.25 -0.55 -0.70 -2.75 -0.95 -4.90 -0.40 -3.80 -0.40 -3.95 0.85 -5 0.70 -0.65 1.45 -1.15 1.65 -1.15 0.20 0 0.80 -0.15 1.30 -0.30 0.80 -0.25 0.80 -0.20 0.05 0.25 -1.25 0.85 -2.05 5.50 -1.50 9.05 0.35 2.35 0.30 3 -0.20 3 -0.35 0 -0.90 -0.45 -1.20 -0.95z"/>
  <path d="M14.15 75.65 c-0.90 -0.35 -0.80 -1.15 0.10 -1.15 0.40 0 0.75 0.35 0.75 0.75 0 0.40 -0.05 0.75 -0.10 0.70 -0.10 0 -0.45 -0.15 -0.75 -0.30z"/>
  <path d="M71 73.80 c-0.35 -1.25 -0.50 -2.50 -0.35 -2.90 0.15 -0.35 0.30 -0.15 0.30 0.50 0.05 0.60 0.40 1.90 0.75 2.85 0.40 0.95 0.55 1.75 0.35 1.75 -0.25 0 -0.70 -1 -1.05 -2.20z"/>
  <path d="M71.70 72.75 c-0.50 -1.95 0 -2.40 0.60 -0.50 0.30 0.95 0.35 1.75 0.15 1.75 -0.25 0 -0.55 -0.55 -0.75 -1.25z"/>
  <path d="M22.40 71.30 c-0.25 -1.25 0.40 -5.15 0.85 -4.70 0.10 0.05 0 1.50 -0.20 3.15 -0.25 2.40 -0.40 2.70 -0.65 1.55z"/>
  <path d="M52.30 71.20 c-0.10 -0.30 0.25 -1.75 0.80 -3.25 0.50 -1.50 1.10 -3.20 1.25 -3.80 0.20 -0.90 0.60 -1.15 1.95 -1.15 0.95 0 1.70 0.15 1.70 0.30 0 0.15 -0.70 1.60 -1.55 3.20 -0.85 1.60 -1.60 3.50 -1.65 4.15 -0.05 0.95 -0.30 1.20 -1.15 1.15 -0.65 0 -1.25 -0.30 -1.35 -0.60z"/>
  <path d="M112.80 71.20 c0.20 -0.80 0.60 -0.95 2.25 -0.80 1.05 0.10 1.95 0.45 1.95 0.70 0 0.30 -0.70 0.40 -1.70 0.25 -0.90 -0.15 -1.90 -0.05 -2.20 0.25 -0.40 0.40 -0.45 0.25 -0.30 -0.40z"/>
  <path d="M120.65 71.65 c-2 -0.20 -2.15 -0.30 -2.15 -1.60 0 -2.15 -0.55 -4.55 -1.05 -4.55 -0.25 0 -0.45 0.45 -0.45 1 0 0.75 -0.35 1 -1.50 1 -0.80 0 -1.65 0.35 -1.90 0.80 -0.35 0.65 -0.55 0.45 -0.80 -1 -0.35 -1.90 -1.30 -2.50 -1.30 -0.80 0 0.55 -0.20 1 -0.50 1 -0.25 0 -0.50 -0.20 -0.50 -0.50 0 -0.25 -0.35 -0.50 -0.75 -0.50 -0.40 0 -0.75 0.25 -0.75 0.50 0 0.30 -1.65 0.50 -4 0.50 -2.50 0 -4 -0.20 -4 -0.55 0 -0.30 -0.25 -0.35 -0.60 -0.10 -0.95 0.55 -2.80 0.75 -3.05 0.30 -0.55 -0.85 1.20 -2.30 3.25 -2.65 3.55 -0.65 17.50 -1.15 22.05 -0.75 3.25 0.25 4.50 0.55 5.35 1.35 1.35 1.25 1.05 2.10 -0.80 2.30 -0.80 0.10 -1.65 0.40 -1.90 0.65 -0.30 0.30 -0.70 -0.15 -1 -1.15 -0.30 -0.85 -0.85 -1.70 -1.25 -1.80 -0.50 -0.15 -0.60 0 -0.40 0.60 0.20 0.50 0.05 0.80 -0.40 0.80 -0.40 0 -0.75 0.25 -0.75 0.50 0 0.30 -0.55 0.50 -1.25 0.50 -1.05 0 -1.25 0.25 -1.25 1.50 0 1.35 0.15 1.50 1.65 1.55 0.85 0.05 1.75 0.05 2 0 0.20 0 0.35 0.30 0.35 0.70 0 0.40 -0.05 0.70 -0.10 0.65 -0.10 -0.05 -1.10 -0.15 -2.25 -0.25z"/>
  <path d="M108 71 c-1.10 -0.35 -1 -0.40 0.75 -0.45 1.10 0 2.35 0.20 2.75 0.45 0.55 0.35 0.40 0.45 -0.75 0.45 -0.80 -0.05 -2.05 -0.25 -2.75 -0.45z"/>
  <path d="M28.35 68.45 c-0.15 -1.15 -0.55 -2.35 -0.85 -2.65 -0.45 -0.40 -0.55 0 -0.30 1.70 0.25 1.80 0.20 2 -0.20 1.05 -0.30 -0.65 -1.10 -1.75 -1.75 -2.35 -1.60 -1.45 -1.60 -2.20 -0.05 -2.20 2.55 0 6.45 4.95 4.75 6.05 -1.15 0.70 -1.30 0.55 -1.60 -1.60z"/>
  <path d="M88 69.25 c-0.90 -1.10 -0.10 -2.75 1.80 -3.55 0.95 -0.40 2.55 -1.45 3.60 -2.40 2.75 -2.50 3.85 -2.90 8.65 -3.30 l4.45 -0.35 2.45 -2.55 c1.35 -1.40 3 -2.70 3.70 -2.85 1.75 -0.45 4.40 0.95 5.50 2.85 l0.95 1.65 -1.15 -1 c-0.65 -0.55 -1.45 -1.35 -1.80 -1.75 -0.50 -0.60 -0.75 -0.65 -1.50 -0.10 -0.50 0.35 -1.65 0.95 -2.50 1.35 -1 0.45 -2.05 1.55 -2.60 2.65 -0.80 1.55 -1.25 1.95 -2.40 1.95 -0.75 0 -3.10 0.15 -5.15 0.35 -4.05 0.40 -5.45 1.10 -6.90 3.55 -0.70 1.10 -1.45 1.60 -3.35 2 -3.05 0.65 -3 1.40 0.10 1.80 l2.40 0.30 -2.80 0.05 c-1.95 0.10 -3 -0.15 -3.45 -0.65z"/>
  <path d="M77.55 67.30 c-0.90 -0.95 -2.20 -1.85 -2.90 -2.05 -0.65 -0.15 -1.05 -0.50 -0.85 -0.80 0.40 -0.65 2.65 -0.15 3.80 0.90 0.70 0.60 2.15 3.65 1.70 3.65 -0.05 0 -0.85 -0.75 -1.75 -1.70z"/>
  <path d="M16 65.70 c0 -0.85 2.20 -3.75 3.75 -4.90 0.95 -0.75 3.60 -2.25 5.85 -3.30 6.60 -3.15 8.95 -4.60 11.45 -7.05 4.45 -4.40 9.20 -7.10 14.05 -7.95 3.30 -0.60 7.35 -1 6.55 -0.65 -0.35 0.10 -0.65 0.55 -0.65 0.95 0 0.50 -0.70 0.70 -2.60 0.70 -3.75 0.05 -6.65 0.80 -10.50 2.75 -3.40 1.70 -6.90 4.65 -6.90 5.85 0 0.35 -1.50 1.30 -3.25 2.10 -4.45 2 -4.85 2.60 -2.45 3.60 1.65 0.70 3.70 2.40 3.70 3.05 0 0.45 -1.90 -0.90 -2.15 -1.55 -0.50 -1.20 -4.40 -1.50 -7.65 -0.55 -2.40 0.70 -3.45 1.40 -6.05 4.05 -1.75 1.75 -3.15 3.05 -3.15 2.90z"/>
  <path d="M40.80 63.20 c-0.45 -1.25 0.20 -1.50 6.65 -2.70 9.45 -1.70 10.90 -2.10 12.90 -3.30 4.25 -2.55 6.95 -3.80 11.05 -5.15 4 -1.30 4.95 -1.40 11.30 -1.35 l6.95 0.05 0.20 1.30 0.15 1.30 -6.25 -0.05 c-3.45 0 -6.25 -0.20 -6.25 -0.40 0 -0.25 -0.35 -0.40 -0.75 -0.40 -0.40 0 -0.75 0.25 -0.75 0.50 0 0.30 -0.30 0.50 -0.65 0.50 -2.10 0 -9.75 3.05 -12.15 4.85 -1.75 1.30 -4.75 2.45 -7.55 2.85 -1.05 0.20 -3 0.55 -4.40 0.80 -1.35 0.25 -3.15 0.60 -4 0.75 -2.10 0.35 -4.35 0.80 -5.30 1.05 -0.50 0.15 -0.95 -0.15 -1.15 -0.60z"/>
  <path d="M88.35 61 c-0.70 -0.60 -1.95 -1.35 -2.70 -1.75 l-1.40 -0.75 1.90 0 c1.50 0 1.95 -0.25 2.30 -1.10 0.25 -0.65 0.90 -1.55 1.50 -2 0.60 -0.50 0.90 -1.20 0.75 -1.65 -0.20 -0.40 -0.05 -0.75 0.30 -0.75 0.80 0 2.65 1 3.10 1.70 0.60 0.90 0.45 1.55 -0.20 0.90 -1 -1 -2.75 -0.65 -3.85 0.70 -1.25 1.60 -1.35 3.55 -0.20 4.80 1.10 1.20 0.10 1.15 -1.50 -0.10z"/>
  <path d="M110.80 60.55 c-0.40 -0.60 1.70 -2.65 2.45 -2.40 0.25 0.10 0.50 0.75 0.50 1.40 0 0.95 -0.30 1.25 -1.35 1.35 -0.70 0.10 -1.45 -0.05 -1.60 -0.35z"/>
  <path d="M116.35 60.65 c-0.65 -0.60 -0.35 -2.15 0.35 -2.15 0.95 0 2.40 1.45 2.05 2.05 -0.35 0.50 -1.95 0.60 -2.40 0.10z"/>
  <path d="M118 53.75 c-0.80 -0.95 -0.05 -0.95 1.20 0 0.80 0.60 0.85 0.75 0.20 0.75 -0.40 0 -1.05 -0.35 -1.40 -0.75z"/>
  <path d="M115.80 51.75 c-0.80 -0.60 -0.85 -0.75 -0.20 -0.75 0.40 0 1.05 0.35 1.40 0.75 0.80 0.95 0.05 0.95 -1.20 0z"/>
  <path d="M55.25 50.65 c1.90 -0.45 1.80 -1 -0.25 -1.35 -1.15 -0.15 -1.90 -0.55 -1.75 -0.80 0.50 -0.80 2.40 -0.55 4.15 0.50 0.90 0.55 1.95 1 2.35 1 1.05 0 0.95 -1.70 -0.25 -3.60 -1.20 -2 -1.25 -3.55 -0.20 -4.60 1 -1.05 8.95 -1.15 9.35 -0.15 0.20 0.55 -0.35 0.60 -2.55 0.30 -1.55 -0.20 -2.95 -0.20 -3.10 0 -0.15 0.20 -0.65 0.50 -1.10 0.70 -1.10 0.40 -1.10 1.10 -0.15 3.90 0.65 1.75 0.65 2.40 0.20 3.30 -0.55 1.05 -0.95 1.15 -4.15 1.10 -1.95 -0.05 -3.10 -0.15 -2.55 -0.30z"/>
  <path d="M80.30 48.95 c0.15 -0.25 1.45 -0.45 2.85 -0.40 2.95 0.05 2.70 0.25 -0.75 0.60 -1.30 0.10 -2.25 0.05 -2.10 -0.20z"/>
  <path d="M95.40 49.10 c-2.45 -0.05 -4.40 -0.35 -4.40 -0.60 0 -0.30 0.40 -0.50 0.90 -0.50 0.80 -0.05 0.80 -0.05 0 -0.70 -1.50 -1.10 -1 -1.25 0.95 -0.25 1.05 0.50 2.90 0.95 4.15 1 1.25 0 3.15 0.20 4.25 0.40 l2 0.35 -1.75 0.25 c-0.95 0.10 -3.70 0.15 -6.10 0.05z"/>
  <path d="M72.50 41.50 c0 -0.25 0.45 -0.50 1 -0.50 0.55 0 1 0.25 1 0.50 0 0.30 -0.45 0.50 -1 0.50 -0.55 0 -1 -0.20 -1 -0.50z"/>
 </g>
</svg>